<svg id="filled_outline" height="512" viewBox="0 0 512 512" width="512" xmlns="http://www.w3.org/2000/svg" data-name="filled outline"><path d="m488 312v16h-176v-72h96l16 3.2 24 4.8 8 32z" fill="#e0edff"/><path d="m312 368h160l16-16v-24h-176z" fill="#ef5e3b"/><path d="m24 368v-256h288v256z" fill="#ef5e3b"/><circle cx="400" cy="360" fill="#e8f2ff" r="40"/><path d="m456 296h-32v-36.8l24 4.8z" fill="#ffc431"/><g fill="#e35430"><path d="m64 256h80v112h-80z"/><path d="m184 256h128v112h-128z"/><path d="m312 136h40v16l-40 16z"/></g><path d="m24 192h32v32h-32z" fill="#e0edff"/><path d="m56 192h32v32h-32z" fill="#c8dbf7"/><path d="m88 192h32v32h-32z" fill="#e0edff"/><path d="m120 192h32v32h-32z" fill="#c8dbf7"/><path d="m152 192h32v32h-32z" fill="#e0edff"/><path d="m184 192h32v32h-32z" fill="#c8dbf7"/><path d="m216 192h32v32h-32z" fill="#e0edff"/><path d="m248 192h32v32h-32z" fill="#c8dbf7"/><path d="m280 192h32v32h-32z" fill="#e0edff"/><path d="m408 256-40-64h-56v64z" fill="#8be0f0"/><circle cx="104" cy="360" fill="#e8f2ff" r="40"/><circle cx="104" cy="360" r="8"/><circle cx="400" cy="360" r="8"/><path d="m336 280h24v16h-24z"/><path d="m208 296h16v16h-16z"/><path d="m272 296h16v16h-16z"/><path d="m48 136h24v16h-24z"/><path d="m88 136h24v16h-24z"/><path d="m224 136h24v16h-24z"/><path d="m264 136h24v16h-24z"/><path d="m491.57764 304.84473-28.709-14.3545-7.10742-28.43066a8.0007 8.0007 0 0 0 -6.19238-5.9043l-36.61426-7.32287-38.17041-61.07263a8.00055 8.00055 0 0 0 -6.78417-3.75977h-48v-10.5838l34.97119-13.98847a8.00024 8.00024 0 0 0 5.02881-7.42773v-16a7.99977 7.99977 0 0 0 -8-8h-32v-16a7.99977 7.99977 0 0 0 -8-8h-288a7.99977 7.99977 0 0 0 -8 8v256a7.99977 7.99977 0 0 0 8 8h34.7522a47.99005 47.99005 0 0 0 90.4956 0h205.5044a47.99005 47.99005 0 0 0 90.4956 0h26.7522a7.99877 7.99877 0 0 0 5.65674-2.34326l16-16a7.99877 7.99877 0 0 0 2.34326-5.65674v-40a7.99924 7.99924 0 0 0 -4.42236-7.15527zm-171.57764-160.84473h24v2.5835l-24 9.60022zm112 124.95825 9.4668 1.89331 4.28692 17.14844h-13.75372zm-112-68.95825h43.56592l29.99981 48h-73.56573zm-288 0h16v16h-16zm72 192a32 32 0 1 1 32-32 32.036 32.036 0 0 1 -32 32zm32-67.73859a47.88773 47.88773 0 0 0 -64 0v-60.26141h64zm104 35.73859h-48v-96h48zm64 0h-48v-96h48zm0-112h-120a7.99977 7.99977 0 0 0 -8 8v104h-24v-104a7.99977 7.99977 0 0 0 -8-8h-80a7.99977 7.99977 0 0 0 -8 8v104h-24v-128h272zm-240-32v-16h16v16zm32 0v-16h16v16zm32 0v-16h16v16zm32 0v-16h16v16zm32 0v-16h16v16zm32 0v-16h16v16zm32 0v-16h16v16zm48 0h-16v-16h16zm0-32h-272v-64h272zm48 176h-32v-24h38.45764a47.68836 47.68836 0 0 0 -6.45764 24zm48 32a32 32 0 1 1 32-32 32.036 32.036 0 0 1 -32 32zm80-43.314-11.314 11.314h-20.686a47.68836 47.68836 0 0 0 -6.45764-24h38.45764zm0-28.686h-53.50677a47.8682 47.8682 0 0 0 -52.98646 0h-53.50677v-56h87.208l8.792 1.75836v22.24164a16.01833 16.01833 0 0 0 16 16h22.11182l25.88818 12.94434z"/></svg>