<svg id="filled_outline" height="512" viewBox="0 0 512 512" width="512" xmlns="http://www.w3.org/2000/svg" data-name="filled outline"><path d="m464 488h-352v-176l-6.38965 9.58448a32.37263 32.37263 0 0 1 -26.93565 14.41552 32.37261 32.37261 0 0 1 -30.42357-21.3095l-24.25113-66.6905v-76.172a50.10421 50.10421 0 0 1 5.28965-22.40731 38.75035 38.75035 0 0 1 34.65935-21.42069 38.75037 38.75037 0 0 1 27.40064 11.34972l20.65036 20.65028v-136h352z" fill="#ffceb6"/><path d="m464 272-184-64-24 24h-40v32l152 136v88h96z" fill="#ffb089"/><g fill="#ffe3d6"><path d="m464 272-56 56-53.333-56-2.667-120h112z"/><path d="m280 184h-24l-16 16h-8l-40-40v-136h272v88l-48 16h-96z"/><path d="m392 488v-96l-128-128h-96l64 72v152z"/></g><path d="m192 160v-136h-32v104z" fill="#f5714f"/><path d="m408 160v58.67a53.335 53.335 0 0 1 -96 32l-32-42.67v-24h40l4.90991-7.37 11.09009-16.63z" fill="#ffd873"/><path d="m216 264v-64h-40v32l16 32z" fill="#ffd9c7"/><path d="m280 208-24 24h-40v-32h24l16-16h24z" fill="#ffb401"/><path d="m280 184 40-56h96l72-24v32l-80 24h-72l-16 24z" fill="#91c0ff"/><path d="m488 136v32l-80 24v-32z" fill="#7dafff"/><path d="m232 488v-152l-64-72h-56v224z" fill="#ffc431"/><path d="m56 168h16l32 32h72v32l16 32h-88l-24 32-24-56z" fill="#ffb089"/><path d="m492.67773 97.51025a8.00123 8.00123 0 0 0 -7.20752-1.09961l-13.47021 4.49006v-76.9007a7.99977 7.99977 0 0 0 -8-8h-352a7.99977 7.99977 0 0 0 -8 8v116.68652l-6.99365-6.99365a46.75 46.75 0 0 0 -74.87207 12.15039 58.39641 58.39641 0 0 0 -6.13428 25.98486v76.17188a8.00428 8.00428 0 0 0 .48145 2.73389l24.25146 66.69043a40.3849 40.3849 0 0 0 63.26709 17.65527v152.92041a7.99977 7.99977 0 0 0 8 8h352a7.99977 7.99977 0 0 0 8-8v-306.84778l18.29883-5.48962a8.00017 8.00017 0 0 0 5.70117-7.6626v-64a7.99959 7.99959 0 0 0 -3.32227-6.48975zm-85.8518 54.48975h-70.82593a7.99943 7.99943 0 0 0 -6.65625 3.5625l-13.625 20.4375h-20.17334l28.57129-40h91.8833a7.99908 7.99908 0 0 0 2.52979-.41064l61.47021-20.48975v14.94824zm-52.15943 112a45.55075 45.55075 0 0 1 -36.2666-18.1333l-30.3999-40.5332v-13.3335h27.4707l13.4375 22.396a36.44157 36.44157 0 0 0 31.0918 17.604 24 24 0 0 0 0-48h-8v16h8a8 8 0 0 1 0 16 20.36118 20.36118 0 0 1 -17.37207-9.83545l-13.16357-21.93933 10.81689-16.22522h59.71875v50.6665a45.38472 45.38472 0 0 1 -45.3335 45.3335zm29.3335 216h-144v-144a8.0016 8.0016 0 0 0 -2.02051-5.31494l-52.16449-58.68506h74.871l123.314 123.314zm-187.05585-224-12.94415-25.88867v-22.11133h24v48zm27.05585-48h16a7.99877 7.99877 0 0 0 5.65674-2.34326l13.65674-13.65674h12.68652v12.68646l-19.314 19.31354h-28.686zm232-101.766-41.29834 13.766h-94.70166a7.99921 7.99921 0 0 0 -6.50977 3.3501l-37.60705 52.6499h-19.88318a7.99877 7.99877 0 0 0 -5.65674 2.34326l-13.65674 13.65674h-1.373l-35.31352-35.31372v-124.68628h256zm-288-74.234h16v108.68616l-16-16.00016zm-48 0h32v96a7.99877 7.99877 0 0 0 2.34326 5.65674l58.34326 58.34326h-105.373l-1.57959-1.57959 13.42138-26.84277-.00866-.00434a7.9743 7.9743 0 0 0 .85335-3.5733zm-21.0459 285.147a24.37274 24.37274 0 0 1 -43.18457-5.19043l-23.76953-65.36624v-74.76221a42.32194 42.32194 0 0 1 4.44482-18.82958 30.75079 30.75079 0 0 1 49.24805-7.99219l16.57324 16.57324-8.4577 16.91534-16.15167-16.15167a7.99877 7.99877 0 0 0 -5.65674-2.34326h-16v16h12.68652l29.65674 29.65674a7.99877 7.99877 0 0 0 5.65674 2.34326h64v24a7.99583 7.99583 0 0 0 .84473 3.57764l10.21118 20.42236h-75.05591a7.99927 7.99927 0 0 0 -6.3999 3.2002l-24 32 12.7998 9.5996 17.6001-23.46655v32.24487zm21.0459-5.147v-40h44.40723l59.59277 67.0415v140.9585h-104zm280 168v-88a7.99877 7.99877 0 0 0 -2.34326-5.65674l-128-128a7.99877 7.99877 0 0 0 -5.65674-2.34326h-40v-16h32a7.99877 7.99877 0 0 0 5.65674-2.34326l17.47778-17.47774 26.46558 35.28735a61.65745 61.65745 0 0 0 45.53808 24.42877l51.06885 53.622a7.99934 7.99934 0 0 0 5.69531 2.48242c.03272.00046.06543.00046.09766.00046a7.99808 7.99808 0 0 0 5.65674-2.34326l42.34326-42.34326v188.68652zm56-211.31348-47.86035 47.85987-36.97165-38.81977a61.43063 61.43063 0 0 0 44.832-59.06012v-20.71423l40-12zm-40-87.43878v-15.29547l64-19.2v15.29559z"/><path d="m268 425.578h16v28.844h-16z" transform="matrix(.555 -.832 .832 .555 -243.199 425.578)"/><path d="m301.578 392h28.844v16h-28.844z" transform="matrix(.832 -.555 .555 .832 -168.808 242.465)"/><path d="m344 428.686h16v22.627h-16z" transform="matrix(.707 -.707 .707 .707 -208.029 377.775)"/><path d="m263.056 340h17.889v16h-17.889z" transform="matrix(.894 -.447 .447 .894 -126.915 158.381)"/><path d="m232 291.056h16v17.889h-16z" transform="matrix(.447 -.894 .894 .447 -135.659 380.498)"/><path d="m228 121.578h16v28.844h-16z" transform="matrix(.555 -.832 .832 .555 -8.068 256.925)"/><path d="m265.578 84h28.844v16h-28.844z" transform="matrix(.555 -.832 .832 .555 48.135 273.942)"/><path d="m228 55.351h16v25.298h-16z" transform="matrix(.316 -.949 .949 .316 96.86 270.386)"/><path d="m344 60.686h16v22.627h-16z" transform="matrix(.707 -.707 .707 .707 52.187 269.99)"/><path d="m404.686 64h22.627v16h-22.627z" transform="matrix(.707 -.707 .707 .707 70.932 315.245)"/></svg>