<svg id="filled_outline" height="512" viewBox="0 0 512 512" width="512" xmlns="http://www.w3.org/2000/svg" data-name="filled outline"><path d="m96 99.99992v312.00008a76 76 0 0 0 76 76h168a76 76 0 0 0 76-76v-312.00008z" fill="#ffd9c7"/><path d="m416 100a76.0047 76.0047 0 0 1 -76 76h-168a76 76 0 0 1 0-152h168a75.72451 75.72451 0 0 1 46.65 16 76.62639 76.62639 0 0 1 7.09 6.26 75.79933 75.79933 0 0 1 22.26 53.74z" fill="#ffbfa1"/><path d="m184 248h144v48h-144z" fill="#548aff"/><path d="m184 352h144v48h-144z" fill="#548aff"/><path d="m172 496h168a84.095 84.095 0 0 0 84-84v-312a84.095 84.095 0 0 0 -84-84h-168a84.095 84.095 0 0 0 -84 84v312a84.095 84.095 0 0 0 84 84zm236-84a68.07728 68.07728 0 0 1 -68 68h-76v-72h64a7.99977 7.99977 0 0 0 8-8v-48a7.99977 7.99977 0 0 0 -8-8h-64v-40h64a7.99977 7.99977 0 0 0 8-8v-48a7.99977 7.99977 0 0 0 -8-8h-64v-56h76a83.92593 83.92593 0 0 0 68-34.77039zm-216-20v-32h16v32zm32-32h64v32h-64zm96 0v32h-16v-32zm-128-72v-32h16v32zm32-32h64v32h-64zm96 0v32h-16v-32zm-176.45837-217.73529a63.94806 63.94806 0 0 0 48.45837 105.73529h144a48 48 0 0 0 0-96h-140a28 28 0 0 0 0 56h140v-16h-140a12 12 0 0 1 0-24h140a32 32 0 0 1 0 64h-144a48 48 0 0 1 0-96h148a68 68 0 0 1 0 136h-168a67.98581 67.98581 0 0 1 -28.45837-129.73529zm-39.54163 110.9649a83.92593 83.92593 0 0 0 68 34.77039h76v56h-64a7.99977 7.99977 0 0 0 -8 8v48a7.99977 7.99977 0 0 0 8 8h64v40h-64a7.99977 7.99977 0 0 0 -8 8v48a7.99977 7.99977 0 0 0 8 8h64v72h-76a68.07728 68.07728 0 0 1 -68-68z"/></svg>