<svg id="filled_outline" height="512" viewBox="0 0 512 512" width="512" xmlns="http://www.w3.org/2000/svg" data-name="filled outline"><path d="m56 256a57.88846 57.88846 0 0 0 32-51.777v-12.223h72v64z" fill="#7dafff"/><path d="m64 192a16 16 0 0 1 -16-16v-112a16 16 0 0 1 16-16h288a16 16 0 0 1 16 16v128z" fill="#91c0ff"/><path d="m392 392v48a32 32 0 0 1 -32 32h-176a32 32 0 0 1 -32-32v-48z" fill="#4976f2"/><rect fill="#548aff" height="264" rx="32" width="240" x="152" y="160"/><path d="m224 224h96v88h-96z" fill="#98eafa"/><rect fill="#91c0ff" height="40" rx="20" width="96" x="224" y="344"/><path d="m120 376h32v48h-32z" fill="#7dafff"/><path d="m152 320v-32h-64a63.99994 63.99994 0 0 0 -64 63.99994v.00012a63.99994 63.99994 0 0 0 64 63.99994h32v-32h-32a32 32 0 0 1 -32-32 32 32 0 0 1 32-32z" fill="#718799"/><path d="m368 128v-32h56a63.99994 63.99994 0 0 1 64 63.99994v96.00006a64 64 0 0 1 -64 64h-32v-32h32a32 32 0 0 0 32-32v-96a32 32 0 0 0 -32-32z" fill="#718799"/><path d="m320 216h-96a8.00008 8.00008 0 0 0 -8 8v88a8.00008 8.00008 0 0 0 8 8h96a8.00008 8.00008 0 0 0 8-8v-88a8.00008 8.00008 0 0 0 -8-8zm-8 88h-80v-72h80z"/><path d="m184 224h16v16h-16z"/><path d="m184 256h16v16h-16z"/><path d="m184 288h16v16h-16z"/><path d="m248 184h48v16h-48z"/><path d="m300 336h-56a28 28 0 0 0 0 56h56a28 28 0 0 0 0-56zm0 40h-56a12 12 0 0 1 0-24h56a12 12 0 0 1 0 24z"/><path d="m424 88h-48v-24a24.02718 24.02718 0 0 0 -24-24h-288a24.02718 24.02718 0 0 0 -24 24v112a24.02718 24.02718 0 0 0 24 24h16v4.22314a49.61686 49.61686 0 0 1 -27.57812 44.62159 8 8 0 0 0 3.57812 15.15527h88v16h-56a72 72 0 0 0 0 144h24a8.00008 8.00008 0 0 0 8 8h24v8a40.04552 40.04552 0 0 0 40 40h176a40.04552 40.04552 0 0 0 40-40v-112h24a72.08124 72.08124 0 0 0 72-72v-96a72.08124 72.08124 0 0 0 -72-72zm-48 67.35v-19.35h48a24.02718 24.02718 0 0 1 24 24v96a24.02718 24.02718 0 0 1 -24 24h-24v-88a40.05231 40.05231 0 0 0 -24-36.65zm-320 20.65v-112a8.00917 8.00917 0 0 1 8-8h288a8.00917 8.00917 0 0 1 8 8v88h-176a40.068 40.068 0 0 0 -39.19507 32h-80.80493a8.00917 8.00917 0 0 1 -8-8zm64 192a8.00008 8.00008 0 0 0 -8 8h-24a24 24 0 0 1 0-48h56v40zm-40.5752-120a65.57451 65.57451 0 0 0 16.5752-43.77686v-4.22314h48v48zm8.5752 160a56 56 0 0 1 0-112h56v16h-56a40 40 0 0 0 0 80h24v16zm40 8v-32h16v32zm232 48h-176a24.02718 24.02718 0 0 1 -24-24v-16.022a39.79015 39.79015 0 0 0 24 8.022h176a39.79015 39.79015 0 0 0 24-8.022v16.022a24.02718 24.02718 0 0 1 -24 24zm0-48h-176a24.0275 24.0275 0 0 1 -24-24v-200a24.0275 24.0275 0 0 1 24-24h176a24.0275 24.0275 0 0 1 24 24v200a24.0275 24.0275 0 0 1 -24 24zm120-160a56.06322 56.06322 0 0 1 -56 56h-24v-16h24a40.04552 40.04552 0 0 0 40-40v-96a40.04552 40.04552 0 0 0 -40-40h-48v-16h48a56.06322 56.06322 0 0 1 56 56z"/><path d="m72 120h16v16h-16z"/><path d="m104 120h16v16h-16z"/><path d="m72 152h16v16h-16z"/><path d="m104 152h16v16h-16z"/></svg>