<?xml version="1.0"?>
<svg xmlns="http://www.w3.org/2000/svg" id="filled_outline" data-name="filled outline" viewBox="0 0 512 512" width="512" height="512"><path d="M432,136V376l-5.71,8-53.68018,75.15A68.9166,68.9166,0,0,1,316.54,488c-1.52,0-3.03-.05-4.54-.15a68.92233,68.92233,0,0,1-44.17993-20.03L256,456l-11.82007,11.82A68.898,68.898,0,0,1,184,487.04a69.0698,69.0698,0,0,1-44.60986-27.89L114.28,424l-11.42017-16L85.71,384,80,376V136l56-78.4,3.39014-4.75A68.93663,68.93663,0,0,1,195.46,24q2.02515,0,4.05.12a68.93847,68.93847,0,0,1,44.66992,20.06L256,56l11.82007-11.82A68.63158,68.63158,0,0,1,304,25.16,67.95925,67.95925,0,0,1,316.54,24c1.15991,0,2.31006.03,3.46.1a68.84181,68.84181,0,0,1,52.60986,28.75L376,57.6,426.29,128Z" style="fill:#ff9371"/><path d="M132.87988,463.7959a76.90433,76.90433,0,0,0,116.959,9.6792L256,467.31348l6.16113,6.16162a76.90433,76.90433,0,0,0,116.959-9.6792l59.38965-83.146A8.003,8.003,0,0,0,440,376V136a8.003,8.003,0,0,0-1.49023-4.6499l-59.38965-83.146a76.90433,76.90433,0,0,0-116.959-9.6792L256,44.68652l-6.16113-6.16162a76.90433,76.90433,0,0,0-116.959,9.6792l-59.38965,83.146A8.003,8.003,0,0,0,72,136V376a8.003,8.003,0,0,0,1.49023,4.6499ZM304,33.29639V56a8.00035,8.00035,0,0,0,2.34277,5.65674l32,32,11.31446-11.31348L320,52.686V32.10474a61.05147,61.05147,0,0,1,40,18.173v50.40881l-21.65723,21.65674,11.31446,11.31348,24-24A8.00035,8.00035,0,0,0,376,104V71.36316L416.45459,128H376v16h48v56H379.31348L360,180.68652V160H344v24a8.00035,8.00035,0,0,0,2.34277,5.65674l24,24A8.00076,8.00076,0,0,0,376,216h48v48H395.31348l-29.65625-29.65674-11.31446,11.31348,32,32A8.00076,8.00076,0,0,0,392,280h32v24H400a7.99943,7.99943,0,0,0-6.65625,3.5625l-16,24,13.3125,8.875L404.28125,320H424v53.43652l-57.89941,81.05957A61.03368,61.03368,0,0,1,328,478.89215V448a8.00035,8.00035,0,0,0-2.34277-5.65674l-32-32-11.31446,11.31348L312,451.31348v28.50238a60.43614,60.43614,0,0,1-38.52441-17.65424L264,452.686V376h40V360H264V328h56a8.00076,8.00076,0,0,0,5.65723-2.34326l24-24-11.31446-11.31348L316.68652,312H264V264h36.68652l13.65625,13.65674,11.31446-11.31348-16-16A8.00076,8.00076,0,0,0,304,248H264V208h32a8.00076,8.00076,0,0,0,5.65723-2.34326l16-16-11.31446-11.31348L292.68652,192H264V160h24V144H264V83.31372l16,15.99976V120h16V96a8.00035,8.00035,0,0,0-2.34277-5.65674L264,60.686V59.314l9.47559-9.47558A60.47125,60.47125,0,0,1,304,33.29639ZM88,144v-5.43652l48-67.20032V104a8.00035,8.00035,0,0,0,2.34277,5.65674l24,24,11.31446-11.31348L152,100.68652V50.27771A61.02613,61.02613,0,0,1,195.459,32c1.52417,0,3.03614.07391,4.541.18414V52.686L170.34277,82.34326l11.31446,11.31348,32-32A8.00035,8.00035,0,0,0,216,56V35.53473a60.69069,60.69069,0,0,1,22.52441,14.30365L248,59.314V76.686l-29.65723,29.65722A8.00035,8.00035,0,0,0,216,112v40h16V115.31348l16-15.99976V216H219.31348l-21.65625-21.65674-11.31446,11.31348,24,24A8.00076,8.00076,0,0,0,216,232h32v40H192a8.00076,8.00076,0,0,0-5.65723,2.34326l-24,24,11.31446,11.31348L195.31348,288H248V396.18384l-24-9.60034V360H208v32a7.99922,7.99922,0,0,0,5.0293,7.42773L248,413.416v39.27l-9.47559,9.47558A60.69786,60.69786,0,0,1,184,478.89215V451.314l29.65723-29.65722-11.31446-11.31348-32,32A8.00035,8.00035,0,0,0,168,448v25.42908a60.893,60.893,0,0,1-22.10059-18.933L124.1167,424H160V408H112.688L88,373.43652V320h19.71875l13.625,20.4375,13.3125-8.875-16-24A7.99943,7.99943,0,0,0,112,304H88V264h40a8.00076,8.00076,0,0,0,5.65723-2.34326l16-16-11.31446-11.31348L124.68652,248H88V216h48a8.00076,8.00076,0,0,0,5.65723-2.34326l24-24A8.00035,8.00035,0,0,0,168,184V160H152v20.68652L132.68652,200H88V160h40V144Z"/><path d="M342.40039,412.7998,364,384h52V368H360a8.0009,8.0009,0,0,0-6.40039,3.2002l-24,32Z"/><path d="M96,368v16h48a8.00076,8.00076,0,0,0,5.65723-2.34326l32-32-11.31446-11.31348L140.68652,368Z"/></svg>
