<svg id="filled_outline" height="512" viewBox="0 0 512 512" width="512" xmlns="http://www.w3.org/2000/svg" data-name="filled outline"><path d="m40 248h432v200h-432z" fill="#e0edff"/><path d="m24 144h464v104h-464z" fill="#548aff"/><path d="m192 64h128v128h-128z" fill="#e8f2ff"/><path d="m128 144 64-56v56z" fill="#d1e4ff"/><path d="m384 144-64-56v56z" fill="#d1e4ff"/><path d="m80 280h200v128h-200z" fill="#8be0f0"/><path d="m368 280h64v128h-64z" fill="#8be0f0"/><path d="m280 280h88v168h-88z" fill="#639aff"/><path d="m488 136h-100.99463l-59.00537-51.62964v-20.37036a8.00008 8.00008 0 0 0 -8-8h-128a8.00008 8.00008 0 0 0 -8 8v20.37036l-59.00537 51.62964h-100.99463a8.00008 8.00008 0 0 0 -8 8v104a8.00008 8.00008 0 0 0 8 8h8v192a8.00008 8.00008 0 0 0 8 8h432a8.00008 8.00008 0 0 0 8-8v-192h8a8.00008 8.00008 0 0 0 8-8v-104a8.00008 8.00008 0 0 0 -8-8zm-125.291 0h-34.709v-30.37036zm-162.709-64h112v112h-112zm-16 33.62964v30.37036h-34.709zm88 294.37036h-184v-112h184zm16-112h72v152h-72zm176 152h-88v-24h56a8.00008 8.00008 0 0 0 8-8v-128a8.00008 8.00008 0 0 0 -8-8h-352a8.00008 8.00008 0 0 0 -8 8v128a8.00008 8.00008 0 0 0 8 8h192v24h-224v-184h416zm-88-40v-112h48v112zm104-160h-448v-88h152v40a8.00008 8.00008 0 0 0 8 8h128a8.00008 8.00008 0 0 0 8-8v-40h152z"/><path d="m264 96h-16v24h-24v16h24v24h16v-24h24v-16h-24z"/><path d="m304 360h16v32h-16z"/></svg>