<?xml version="1.0"?>
<svg xmlns="http://www.w3.org/2000/svg" id="filled_outline" data-name="filled outline" viewBox="0 0 512 512" width="512" height="512"><path d="M88,288v46.05891A81.94105,81.94105,0,0,1,64,392l0,0h64l48,24H336l48-24,64,0,0,0,0,0a81.94105,81.94105,0,0,1-24-57.94107V288Z" style="fill:#d14521"/><path d="M88,224V177.94109A81.94105,81.94105,0,0,0,64,120l0,0h64l48-24H336l48,24,64,0,0,0,0,0a81.94105,81.94105,0,0,0-24,57.94107V224Z" style="fill:#d14521"/><polygon points="464 24 464 120 384 120 336 96 176 96 128 120 48 120 48 24 464 24" style="fill:#ef5e3b"/><polygon points="464 488 464 392 384 392 336 416 176 416 128 392 48 392 48 488 464 488" style="fill:#ef5e3b"/><path d="M228,168h0a17.4571,17.4571,0,0,1,16.17356,10.887L256,208v32a16,16,0,0,1-16,16H216a16,16,0,0,1-16-16V208l11.82643-29.113A17.4571,17.4571,0,0,1,228,168Z" style="fill:#e0edff"/><path d="M172,168h0a17.4571,17.4571,0,0,1,16.17356,10.887L200,208v32a16,16,0,0,1-16,16H160a16,16,0,0,1-16-16V208l11.82643-29.113A17.4571,17.4571,0,0,1,172,168Z" style="fill:#e0edff"/><path d="M116,168h0a17.4571,17.4571,0,0,1,16.17356,10.887L144,208v32a16,16,0,0,1-16,16H104a16,16,0,0,1-16-16V208l11.82643-29.113A17.4571,17.4571,0,0,1,116,168Z" style="fill:#e0edff"/><path d="M396,168h0a17.4571,17.4571,0,0,1,16.17356,10.887L424,208v32a16,16,0,0,1-16,16H384a16,16,0,0,1-16-16V208l11.82643-29.113A17.4571,17.4571,0,0,1,396,168Z" style="fill:#e0edff"/><path d="M340,168h0a17.4571,17.4571,0,0,1,16.17356,10.887L368,208v32a16,16,0,0,1-16,16H328a16,16,0,0,1-16-16V208l11.82643-29.113A17.4571,17.4571,0,0,1,340,168Z" style="fill:#e0edff"/><path d="M284,168h0a17.4571,17.4571,0,0,1,16.17356,10.887L312,208v32a16,16,0,0,1-16,16H272a16,16,0,0,1-16-16V208l11.82643-29.113A17.4571,17.4571,0,0,1,284,168Z" style="fill:#e0edff"/><path d="M228,344h0a17.4571,17.4571,0,0,0,16.17356-10.887L256,304V272a16,16,0,0,0-16-16H216a16,16,0,0,0-16,16v32l11.82643,29.113A17.4571,17.4571,0,0,0,228,344Z" style="fill:#e0edff"/><path d="M172,344h0a17.4571,17.4571,0,0,0,16.17356-10.887L200,304V272a16,16,0,0,0-16-16H160a16,16,0,0,0-16,16v32l11.82643,29.113A17.4571,17.4571,0,0,0,172,344Z" style="fill:#e0edff"/><path d="M116,344h0a17.4571,17.4571,0,0,0,16.17356-10.887L144,304V272a16,16,0,0,0-16-16H104a16,16,0,0,0-16,16v32l11.82643,29.113A17.4571,17.4571,0,0,0,116,344Z" style="fill:#e0edff"/><path d="M396,344h0a17.4571,17.4571,0,0,0,16.17356-10.887L424,304V272a16,16,0,0,0-16-16H384a16,16,0,0,0-16,16v32l11.82643,29.113A17.4571,17.4571,0,0,0,396,344Z" style="fill:#e0edff"/><path d="M340,344h0a17.4571,17.4571,0,0,0,16.17356-10.887L368,304V272a16,16,0,0,0-16-16H328a16,16,0,0,0-16,16v32l11.82643,29.113A17.4571,17.4571,0,0,0,340,344Z" style="fill:#e0edff"/><path d="M284,344h0a17.4571,17.4571,0,0,0,16.17356-10.887L312,304V272a16,16,0,0,0-16-16H272a16,16,0,0,0-16,16v32l11.82643,29.113A17.4571,17.4571,0,0,0,284,344Z" style="fill:#e0edff"/><path d="M80,334.05908A73.40525,73.40525,0,0,1,60.57507,384H48a7.99977,7.99977,0,0,0-8,8v96a7.99977,7.99977,0,0,0,8,8H464a7.99977,7.99977,0,0,0,8-8V392a7.99977,7.99977,0,0,0-8-8H451.42493A73.40525,73.40525,0,0,1,432,334.05908V272a23.90073,23.90073,0,0,0-6.13055-16A23.90085,23.90085,0,0,0,432,240V177.94092A73.40525,73.40525,0,0,1,451.42493,128H464a7.99977,7.99977,0,0,0,8-8V24a7.99977,7.99977,0,0,0-8-8H48a7.99977,7.99977,0,0,0-8,8v96a7.99977,7.99977,0,0,0,8,8H60.57507A73.40525,73.40525,0,0,1,80,177.94092V240a23.90085,23.90085,0,0,0,6.13055,16A23.90073,23.90073,0,0,0,80,272ZM96,272a8.00917,8.00917,0,0,1,8-8h24a8.00917,8.00917,0,0,1,8,8v30.437l-11.23877,27.66553a9.45676,9.45676,0,0,1-17.52295-.00049L96,302.437Zm56-62.437,11.23877-27.66553a9.45676,9.45676,0,0,1,17.523.00049L192,209.563V240a8.00917,8.00917,0,0,1-8,8H160a8.00917,8.00917,0,0,1-8-8Zm56,0,11.23877-27.66553a9.45676,9.45676,0,0,1,17.523.00049L248,209.563V240a8.00917,8.00917,0,0,1-8,8H216a8.00917,8.00917,0,0,1-8-8Zm56,0,11.23877-27.66553a9.45676,9.45676,0,0,1,17.523.00049L304,209.563V240a8.00917,8.00917,0,0,1-8,8H272a8.00917,8.00917,0,0,1-8-8Zm56,0,11.23877-27.66553a9.45676,9.45676,0,0,1,17.523.00049L360,209.563V240a8.00917,8.00917,0,0,1-8,8H328a8.00917,8.00917,0,0,1-8-8Zm40,92.874-11.23877,27.66553a9.45676,9.45676,0,0,1-17.523-.00049L320,302.437V272a8.00917,8.00917,0,0,1,8-8h24a8.00917,8.00917,0,0,1,8,8Zm-56,0-11.23877,27.66553a9.45676,9.45676,0,0,1-17.523-.00049L264,302.437V272a8.00917,8.00917,0,0,1,8-8h24a8.00917,8.00917,0,0,1,8,8Zm-56,0-11.23877,27.66553a9.45676,9.45676,0,0,1-17.523-.00049L208,302.437V272a8.00917,8.00917,0,0,1,8-8h24a8.00917,8.00917,0,0,1,8,8Zm-56,0-11.23877,27.66553a9.45676,9.45676,0,0,1-17.523-.00049L152,302.437V272a8.00917,8.00917,0,0,1,8-8h24a8.00917,8.00917,0,0,1,8,8ZM456,480H56V400h70.11133l46.311,23.15527A7.99737,7.99737,0,0,0,176,424H336a7.99737,7.99737,0,0,0,3.57764-.84473L385.88867,400H456Zm-72-96a7.99737,7.99737,0,0,0-3.57764.84473L334.11133,408H177.88867l-46.311-23.15527A7.99737,7.99737,0,0,0,128,384H80.89124a89.04475,89.04475,0,0,0,14.759-42.17261,25.44965,25.44965,0,0,0,43.93475-5.70385l4.415-10.86792,4.41461,10.86743a25.45653,25.45653,0,0,0,47.17041.00049l4.415-10.86792,4.41461,10.86743a25.45653,25.45653,0,0,0,47.17041.00049l4.415-10.86792,4.41461,10.86743a25.45653,25.45653,0,0,0,47.17041.00049l4.415-10.86792,4.41461,10.86743a25.45653,25.45653,0,0,0,47.17041.00049l4.415-10.86792,4.41461,10.86743a25.44984,25.44984,0,0,0,43.93518,5.70434A89.04527,89.04527,0,0,0,431.10876,384Zm32-81.563-11.23877,27.66553a9.45676,9.45676,0,0,1-17.523-.00049L376,302.437V272a8.00917,8.00917,0,0,1,8-8h24a8.00917,8.00917,0,0,1,8,8ZM416,240a8.00917,8.00917,0,0,1-8,8H384a8.00917,8.00917,0,0,1-8-8V209.563l11.23877-27.66553a9.45676,9.45676,0,0,1,17.523.00049L416,209.563ZM56,32H456v80H385.88867l-46.311-23.15527A7.99737,7.99737,0,0,0,336,88H176a7.99737,7.99737,0,0,0-3.57764.84473L126.11133,112H56Zm72,96a7.99737,7.99737,0,0,0,3.57764-.84473L177.88867,104H334.11133l46.311,23.15527A7.99737,7.99737,0,0,0,384,128h47.10876a89.04475,89.04475,0,0,0-14.759,42.17261,25.44965,25.44965,0,0,0-43.93475,5.70385l-4.415,10.86792L363.58545,175.877a25.45653,25.45653,0,0,0-47.17041-.00049l-4.415,10.86792L307.58545,175.877a25.45653,25.45653,0,0,0-47.17041-.00049l-4.415,10.86792L251.58545,175.877a25.45653,25.45653,0,0,0-47.17041-.00049l-4.415,10.86792L195.58545,175.877a25.45653,25.45653,0,0,0-47.17041-.00049l-4.415,10.86792L139.58545,175.877a25.4498,25.4498,0,0,0-43.93518-5.70428A89.045,89.045,0,0,0,80.89124,128ZM96,209.563l11.23877-27.66553a9.45676,9.45676,0,0,1,17.52295.00049L136,209.563V240a8.00917,8.00917,0,0,1-8,8H104a8.00917,8.00917,0,0,1-8-8Z"/></svg>
