<svg id="filled_outline" height="512" viewBox="0 0 512 512" width="512" xmlns="http://www.w3.org/2000/svg" data-name="filled outline"><path d="m104 48h304a32 32 0 0 1 32 32v376a32 32 0 0 1 -32 32h-304a32 32 0 0 1 -32-32v-376a32 32 0 0 1 32-32z" fill="#548aff"/><rect fill="#e0edff" height="408" rx="16" width="304" x="104" y="48"/><path d="m344 104v-32l-58.68721-39.12481a52.84438 52.84438 0 0 0 -29.31279-8.87519 52.84438 52.84438 0 0 0 -29.31277 8.87519l-58.68723 39.12481v32z" fill="#ffc431"/><path d="m248 199.44a24.58241 24.58241 0 0 1 -24.56 24.56h-23.44v24h-24v-40l-40-24 16-24 24 16v-40h24v32h10.59a39.9704 39.9704 0 0 1 33.28 17.81 24.66606 24.66606 0 0 1 4.13 13.63z" fill="#ef5e3b"/><path d="m136 328 15.02945 15.02945a57.94108 57.94108 0 0 0 40.97055 16.97055 57.94108 57.94108 0 0 0 40.97053-16.97055l15.02947-15.02945-15.02945-15.02945a57.94108 57.94108 0 0 0 -40.97055-16.97055 57.94108 57.94108 0 0 0 -40.97053 16.97055z" fill="#bdd1f2"/><circle cx="192" cy="328" fill="#548aff" r="24"/><path d="m246.46 208a24.60689 24.60689 0 0 1 -23.02 16h-23.44a15.99555 15.99555 0 0 1 16-16z" fill="#e35430"/><circle cx="256" cy="56" r="8"/><path d="m104 496h304a40.04521 40.04521 0 0 0 40-40v-376a40.04521 40.04521 0 0 0 -40-40h-97.57788l-20.67163-13.78125a60.84494 60.84494 0 0 0 -67.501 0l-20.67167 13.78125h-97.57782a40.04521 40.04521 0 0 0 -40 40v376a40.04521 40.04521 0 0 0 40 40zm127.12451-456.46875a44.84712 44.84712 0 0 1 49.751 0l55.12449 36.75v19.71875h-160v-19.71875zm-53.54651 16.46875-14.01552 9.34375a7.99946 7.99946 0 0 0 -3.56248 6.65625v32a7.99977 7.99977 0 0 0 8 8h176a7.99977 7.99977 0 0 0 8-8v-32a7.99943 7.99943 0 0 0 -3.5625-6.65625l-14.0155-9.34375h57.578a8.00917 8.00917 0 0 1 8 8v376a8.00917 8.00917 0 0 1 -8 8h-272a8.00917 8.00917 0 0 1 -8-8v-376a8.00917 8.00917 0 0 1 8-8zm-97.578 24a24.04089 24.04089 0 0 1 17.0343-22.96564 23.91688 23.91688 0 0 0 -1.0343 6.96564v376a24.02687 24.02687 0 0 0 24 24h272a24.02687 24.02687 0 0 0 24-24v-376a23.9189 23.9189 0 0 0 -1.0343-6.96564 24.04089 24.04089 0 0 1 17.0343 22.96564v376a24.0275 24.0275 0 0 1 -24 24h-304a24.0275 24.0275 0 0 1 -24-24z"/><path d="m168 248h16v-40a8.00072 8.00072 0 0 0 -3.88379-6.85986l-40-24-8.23242 13.71972 36.11621 21.66944z"/><path d="m176.00049 184a8.00039 8.00039 0 0 0 7.99951-8v-40h-16v25.05176l-11.56252-7.708-8.875 13.3125 24 16a7.99471 7.99471 0 0 0 4.43801 1.34374z"/><path d="m208 232h15.437a32.5625 32.5625 0 0 0 27.09375-50.62549 47.90212 47.90212 0 0 0 -39.93798-21.37451h-2.59277v-24h-16v32a7.99977 7.99977 0 0 0 8 8h10.59277a31.93534 31.93534 0 0 1 26.62549 14.25 16.56263 16.56263 0 0 1 -13.78126 25.75h-15.437v-16h-16v48h16z"/><path d="m288 160h16v16h-16z"/><path d="m320 160h48v16h-48z"/><path d="m272 192h48v16h-48z"/><path d="m336 192h32v16h-32z"/><path d="m272 224h24v16h-24z"/><path d="m312 224h56v16h-56z"/><path d="m288 288h16v16h-16z"/><path d="m320 288h48v16h-48z"/><path d="m272 320h48v16h-48z"/><path d="m336 320h32v16h-32z"/><path d="m272 352h24v16h-24z"/><path d="m312 352h56v16h-56z"/><path d="m200 408h24v16h-24z"/><path d="m240 408h128v16h-128z"/><path d="m145.37256 348.686a65.94057 65.94057 0 0 0 93.25488 0l15.0293-15.0293a7.99915 7.99915 0 0 0 0-11.31348l-15.0293-15.0293a65.94057 65.94057 0 0 0 -93.25488 0l-15.0293 15.0293a7.99915 7.99915 0 0 0 0 11.31348zm46.62744-36.686a16 16 0 1 1 -16 16 16.01833 16.01833 0 0 1 16-16zm44.686 16-9.37208 9.37256a50.458 50.458 0 0 1 -7.26605 6.0144 31.92963 31.92963 0 0 0 0-30.77392 50.45476 50.45476 0 0 1 7.26605 6.0144zm-80-9.37256a50.45476 50.45476 0 0 1 7.26605-6.0144 31.92963 31.92963 0 0 0 0 30.77392 50.458 50.458 0 0 1 -7.26605-6.0144l-9.372-9.37256z"/></svg>