<?xml version="1.0"?>
<svg xmlns="http://www.w3.org/2000/svg" id="filled_outline" data-name="filled outline" viewBox="0 0 512 512" width="512" height="512"><path d="M488,352H85.23A61.22534,61.22534,0,0,1,24,290.77,170.76311,170.76311,0,0,1,184.74,120.29c.04,0,.09009-.01.13013-.01,3.28979-.18,6.58984-.28,9.8999-.28A299.84118,299.84118,0,0,1,425.95,228.88L456,265.26l1.42993,1.73A133.47919,133.47919,0,0,1,488,352Z" style="fill:#e8f2ff"/><path d="M400,208a112,112,0,1,1-182.37988-87.12A299.85421,299.85421,0,0,1,399.78,201.03C399.92993,203.33,400,205.66,400,208Z" style="fill:#548aff"/><circle cx="296" cy="224" r="40" style="fill:#486be0"/><path d="M488,352H416a106.59437,106.59437,0,0,0,40-83.22v-3.52l1.42993,1.73A133.47919,133.47919,0,0,1,488,352Z" style="fill:#fa8669"/><path d="M85.74,213.31A204.01179,204.01179,0,0,0,72,286.92993,65.06633,65.06633,0,0,0,137.07007,352H85.23A61.22534,61.22534,0,0,1,24,290.77,170.76311,170.76311,0,0,1,184.74,120.29a90.44648,90.44648,0,0,0-59.6499,29.31A204.03257,204.03257,0,0,0,85.74,213.31Z" style="fill:#fa8669"/><path d="M312,143.87V144a80.00361,80.00361,0,0,1-80,80H177.14014a112.10052,112.10052,0,0,1,40.48-103.12A299.30193,299.30193,0,0,1,312,143.87Z" style="fill:#91c0ff"/><path d="M496,352a141.15879,141.15879,0,0,0-3.69165-32.00415l-2.67261-16.93335A305.88921,305.88921,0,0,0,381.06543,113.80811l-10.13184,12.3833A289.85537,289.85537,0,0,1,463.31323,261.5542l-31.197-37.76465a309.84225,309.84225,0,0,0-106.16992-82.44336A306.45082,306.45082,0,0,0,282.06934,124.682l-2.53809-3.80652A44.70644,44.70644,0,0,1,272,96H256a60.66347,60.66347,0,0,0,4.58887,23.17493q-9.49-2.07789-19.09351-3.56543A68.33684,68.33684,0,0,1,232,80.81055V80H216v.81055a84.34085,84.34085,0,0,0,6.481,32.46722q-9.50647-.86994-19.04053-1.15131l-4.8125-4.8125A49.61514,49.61514,0,0,1,184,72H168a65.43514,65.43514,0,0,0,13.52441,40H163.314l-12.686-12.686A49.61514,49.61514,0,0,1,136,64H120a65.51183,65.51183,0,0,0,19.31348,46.62744l1.7705,1.77057a207.19322,207.19322,0,0,0-22.71386,2.658l-7.74219-7.74207A49.61514,49.61514,0,0,1,96,72H80a65.51183,65.51183,0,0,0,19.31348,46.62744l.51953.51959a207.66324,207.66324,0,0,0-24.92359,8.44849L70.62793,123.314A49.61514,49.61514,0,0,1,56,88H40a65.51183,65.51183,0,0,0,19.31348,46.62744l.09668.09656A207.20791,207.20791,0,0,0,18.794,161.92578l10.4121,12.14844a191.49238,191.49238,0,0,1,81.65162-41.19116A178.97674,178.97674,0,0,0,16,290.76709,69.311,69.311,0,0,0,85.23242,360H469.19775a125.0122,125.0122,0,0,1-83.68017,32H304v16h81.51758a141.02376,141.02376,0,0,0,108.62793-50.87842l-.00122-.001A7.96552,7.96552,0,0,0,496,352Zm-33.595-64.04883A125.88947,125.88947,0,0,1,479.74316,344H435.86865A113.65088,113.65088,0,0,0,462.405,287.95117Zm-70.46436-83.3139C391.97632,205.759,392,206.88214,392,208a104.00381,104.00381,0,0,1-205.19971,24H232a88.10937,88.10937,0,0,0,16.446-1.54767,47.995,47.995,0,1,0,64.2815-51.44183,87.25423,87.25423,0,0,0,6.48535-23.25672A290.72468,290.72468,0,0,1,391.94067,204.63727ZM184,208a103.81311,103.81311,0,0,1,36.241-78.88672,291.23751,291.23751,0,0,1,83.56274,19.92883A72.07986,72.07986,0,0,1,232,216H184.30469Q184.0022,212.03907,184,208Zm120.89038-14.74585a32.00173,32.00173,0,1,1-40.82519,32.697A88.49671,88.49671,0,0,0,304.89038,193.25415ZM85.23242,344A53.293,53.293,0,0,1,32,290.76709a162.94686,162.94686,0,0,1,83.16772-142.00256A211.69383,211.69383,0,0,0,64,286.92871,72.95581,72.95581,0,0,0,91.5166,344Zm51.83887,0A57.13558,57.13558,0,0,1,80,286.92871,195.76185,195.76185,0,0,1,131.01172,154.979a82.61356,82.61356,0,0,1,54.085-26.68328c3.21045-.18934,6.43408-.29572,9.6709-.29572,1.25122,0,2.49707.03589,3.74609.0517a120,120,0,1,0,208.89112,91.91223q6.37572,6.792,12.37548,14.01605L448,268.1405v.6344A98.06778,98.06778,0,0,1,413.13135,344Z"/><rect x="240" y="392" width="40" height="16"/><rect x="332.00018" y="81.57779" width="15.99963" height="28.84441" transform="translate(71.52511 325.64588) rotate(-56.30993)"/></svg>
