<?xml version="1.0"?>
<svg xmlns="http://www.w3.org/2000/svg" id="filled_outline" data-name="filled outline" viewBox="0 0 512 512" width="512" height="512"><path d="M193.333,400l46.66774,40.00078A199.38,199.38,0,0,0,369.75526,488H488V456H404.8464a53.9,53.9,0,0,1-44.84751-24.00166L338.66667,400Z" style="fill:#e0edff"/><path d="M211.99971,96l28.001-24.0008A199.38,199.38,0,0,1,369.75526,24H488V56H404.8464a53.9,53.9,0,0,0-44.84751,24.00166L349.33333,96Z" style="fill:#e0edff"/><path d="M488,255.99982A183.9998,183.9998,0,0,0,304.00024,72H239.99976A183.80532,183.80532,0,0,0,88,152.27679V152h0a64,64,0,0,0-64,63.99994V296a64,64,0,0,0,64,64h0l-.00012-.27686A183.80559,183.80559,0,0,0,239.99976,440h64.00048a183.3537,183.3537,0,0,0,126.15491-50.069L488,432V328l-11.55664-7.70435A183.59127,183.59127,0,0,0,488,256.00024Z" style="fill:#ffceb6"/><path d="M128,184H88a32,32,0,0,0-32,32v80a32,32,0,0,0,32,32h40Z" style="fill:#faa175"/><path d="M488,360v40l-66.1-48.07007A153.1888,153.1888,0,0,1,382.73,386.04a151.04366,151.04366,0,0,1-53.91992,19.95A153.14132,153.14132,0,0,1,309.39,407.90991h-.01C307.6,407.97,305.80005,408,304,408H240a152,152,0,1,1,0-304h56V256H456a151.30914,151.30914,0,0,1-16.91992,69.75Z" style="fill:#ffb089"/><path d="M195.12,368.73,240,408a152,152,0,1,1,0-304l-44.88,39.27A55.96536,55.96536,0,0,0,176,185.41V326.59a55.96506,55.96506,0,0,0,19.12,42.14Z" style="fill:#f5714f"/><path d="M232,256a115.89047,115.89047,0,0,1-33.93994,81.93994L182.75,353.25A56.02088,56.02088,0,0,1,176,326.59V185.41a56.02047,56.02047,0,0,1,6.75-26.66l15.31006,15.31A115.90072,115.90072,0,0,1,232,256Z" style="fill:#fa8669"/><path d="M200,249.94v12.12006A57.9391,57.9391,0,0,1,142.06006,320h-.63013a33.98465,33.98465,0,0,1-23.23-9.18994L90.77,285.05005A153.70376,153.70376,0,0,1,90.26,229.74l27.80005-27.8a33.89947,33.89947,0,0,1,24-9.94A57.93915,57.93915,0,0,1,200,249.94Z" style="fill:#e0edff"/><path d="M456,256.00015v0A32.00012,32.00012,0,0,0,423.99988,224H328V136a32,32,0,0,0-32-32h0V256Z" style="fill:#ffc431"/><path d="M488,64a7.99977,7.99977,0,0,0,8-8V24a7.99977,7.99977,0,0,0-8-8H369.75635A207.51221,207.51221,0,0,0,237.03857,64.04456,192.04145,192.04145,0,0,0,83.95312,144.1123,72.08951,72.08951,0,0,0,16,216v80a72.08951,72.08951,0,0,0,67.95312,71.8877,192.04161,192.04161,0,0,0,153.08545,80.06774A207.51221,207.51221,0,0,0,369.75635,496H488a7.99977,7.99977,0,0,0,8-8V456a7.99977,7.99977,0,0,0-8-8H404.84424a45.77779,45.77779,0,0,1-31.781-12.80493,191.46464,191.46464,0,0,0,57.65747-34.96069l52.57373,38.23535A7.99994,7.99994,0,0,0,496,432V328a7.99943,7.99943,0,0,0-3.5625-6.65625l-6.374-4.24951A191.4124,191.4124,0,0,0,496,256c0-81.54913-51.10974-151.376-122.97461-179.15851A45.77708,45.77708,0,0,1,404.84424,64ZM404.84424,464H480v16H369.75635a191.51562,191.51562,0,0,1-105.92017-32h40.16431a192.37912,192.37912,0,0,0,52.48157-7.27271A61.75293,61.75293,0,0,0,404.84424,464Zm-14.37012-92.83936L368,348.68652V320H352v24H320v16h36.68652l20.21985,20.21985a143.186,143.186,0,0,1-54.26428,18.56946L280,349.04028V320H264v24H232v16h36.32031L302.606,400h-59.6001L200.3916,362.71289a47.96381,47.96381,0,0,1-7.48816-8.30286l10.81238-10.81237a123.8817,123.8817,0,0,0,0-175.19532L192.90344,157.59a47.96381,47.96381,0,0,1,7.48816-8.30286L243.00586,112H288V256a7.99977,7.99977,0,0,0,8,8H447.78613a142.04483,142.04483,0,0,1-15.813,58.07764,7.99986,7.99986,0,0,0,2.51709,10.23047L480,364.16528v20.12451L426.60693,345.4585a8.00012,8.00012,0,0,0-10.9082,1.417A145.0596,145.0596,0,0,1,390.47412,371.16064ZM192.40234,179.71582a107.8828,107.8828,0,0,1,0,152.56836l-6.75439,6.75439A47.97672,47.97672,0,0,1,184,326.58887V312.90564a65.83592,65.83592,0,0,0,24-50.84656V249.94092a65.83583,65.83583,0,0,0-24-50.84656V185.41113a47.97593,47.97593,0,0,1,1.648-12.44964ZM96,256a144.4573,144.4573,0,0,1,1.75159-22.43811l25.96423-25.96423A25.77164,25.77164,0,0,1,142.05908,200,49.99737,49.99737,0,0,1,192,249.94092v12.11816A49.99737,49.99737,0,0,1,142.05908,312a25.77164,25.77164,0,0,1-18.34326-7.59766L97.75159,278.43811A144.45788,144.45788,0,0,1,96,256Zm72-70.58887v3.91413A65.56232,65.56232,0,0,0,142.05908,184a41.6664,41.6664,0,0,0-29.65674,12.28418l-6.00366,6.00372A144.45942,144.45942,0,0,1,216.5061,113.927l-26.65063,23.31909A63.99707,63.99707,0,0,0,168,185.41113ZM80,256a159.07736,159.07736,0,0,0,13.37366,64H88a24.02687,24.02687,0,0,1-24-24V216a24.02687,24.02687,0,0,1,24-24h5.37366A159.07715,159.07715,0,0,0,80,256Zm32.40234,59.71582A41.6664,41.6664,0,0,0,142.05908,328,65.56333,65.56333,0,0,0,168,322.6748v3.91407a63.99707,63.99707,0,0,0,21.85547,48.165L216.5061,398.073a144.45947,144.45947,0,0,1-110.10742-88.36084ZM320,136v88a7.99977,7.99977,0,0,0,8,8h96a24.03824,24.03824,0,0,1,22.62378,16H304V113.37622A24.03837,24.03837,0,0,1,320,136ZM480,256v.00049A175.36121,175.36121,0,0,1,468.94775,317.5a7.9998,7.9998,0,0,0,3.05811,9.45215L480,332.28174v12.3529l-30.73047-21.51159A160.65581,160.65581,0,0,0,464,256a40.04521,40.04521,0,0,0-40-40H336V136a40.04521,40.04521,0,0,0-40-40H240a160.09355,160.09355,0,0,0-138.52148,80H88a40.04521,40.04521,0,0,0-40,40v80a40.04521,40.04521,0,0,0,40,40h13.47852A160.09355,160.09355,0,0,0,240,416h64a159.39084,159.39084,0,0,0,119.17773-53.25146L480,404.07373V416.29l-45.13916-32.82861a7.998,7.998,0,0,0-10.19189.64746A175.30467,175.30467,0,0,1,304.00049,432H240A176.069,176.069,0,0,1,94.604,355.208a7.9966,7.9966,0,0,0-8.56152-3.2417A56.07013,56.07013,0,0,1,32,296V216a56.06979,56.06979,0,0,1,54.04248-55.96631A7.99966,7.99966,0,0,0,94.604,156.792,176.069,176.069,0,0,1,240,80h64.00049C401.04688,80,480,158.95312,480,256ZM304.00049,64H263.83618A191.51562,191.51562,0,0,1,369.75635,32H480V48H404.84424a61.75276,61.75276,0,0,0-48.37366,23.28735A191.5116,191.5116,0,0,0,304.00049,64Z"/></svg>
